<mxfile host="Electron" modified="2024-07-29T22:51:07.388Z" agent="Mozilla/5.0 (Macintosh; Intel Mac OS X 10_15_7) AppleWebKit/537.36 (KHTML, like Gecko) draw.io/22.0.2 Chrome/114.0.5735.289 Electron/25.8.4 Safari/537.36" etag="SvwyF8NbmBeTfvDAD6YE" version="22.0.2" type="device" pages="3">
  <diagram name="helix-core" id="IsQfzT1oATPhJXuLboz-">
    <mxGraphModel dx="989" dy="626" grid="1" gridSize="10" guides="1" tooltips="1" connect="1" arrows="1" fold="1" page="1" pageScale="1" pageWidth="850" pageHeight="1100" math="0" shadow="0">
      <root>
        <mxCell id="0" />
        <mxCell id="1" parent="0" />
        <mxCell id="3BxQ9rhZjtDYRVUFLNOO-4" value="AWS Cloud" style="points=[[0,0],[0.25,0],[0.5,0],[0.75,0],[1,0],[1,0.25],[1,0.5],[1,0.75],[1,1],[0.75,1],[0.5,1],[0.25,1],[0,1],[0,0.75],[0,0.5],[0,0.25]];outlineConnect=0;gradientColor=none;html=1;whiteSpace=wrap;fontSize=12;fontStyle=0;container=1;pointerEvents=0;collapsible=0;recursiveResize=0;shape=mxgraph.aws4.group;grIcon=mxgraph.aws4.group_aws_cloud_alt;strokeColor=#232F3E;fillColor=none;verticalAlign=top;align=left;spacingLeft=30;fontColor=#232F3E;dashed=0;" vertex="1" parent="1">
          <mxGeometry x="240" y="120" width="440" height="320" as="geometry" />
        </mxCell>
        <mxCell id="3BxQ9rhZjtDYRVUFLNOO-2" value="vpc_id" style="points=[[0,0],[0.25,0],[0.5,0],[0.75,0],[1,0],[1,0.25],[1,0.5],[1,0.75],[1,1],[0.75,1],[0.5,1],[0.25,1],[0,1],[0,0.75],[0,0.5],[0,0.25]];outlineConnect=0;gradientColor=none;html=1;whiteSpace=wrap;fontSize=12;fontStyle=0;container=1;pointerEvents=0;collapsible=0;recursiveResize=0;shape=mxgraph.aws4.group;grIcon=mxgraph.aws4.group_vpc;strokeColor=#248814;fillColor=none;verticalAlign=top;align=left;spacingLeft=30;fontColor=#AAB7B8;dashed=0;" vertex="1" parent="3BxQ9rhZjtDYRVUFLNOO-4">
          <mxGeometry x="40" y="40" width="360" height="240" as="geometry" />
        </mxCell>
        <mxCell id="3BxQ9rhZjtDYRVUFLNOO-5" value="instance_subnet" style="points=[[0,0],[0.25,0],[0.5,0],[0.75,0],[1,0],[1,0.25],[1,0.5],[1,0.75],[1,1],[0.75,1],[0.5,1],[0.25,1],[0,1],[0,0.75],[0,0.5],[0,0.25]];outlineConnect=0;gradientColor=none;html=1;whiteSpace=wrap;fontSize=12;fontStyle=0;container=1;pointerEvents=0;collapsible=0;recursiveResize=0;shape=mxgraph.aws4.group;grIcon=mxgraph.aws4.group_security_group;grStroke=0;strokeColor=#248814;fillColor=#E9F3E6;verticalAlign=top;align=left;spacingLeft=30;fontColor=#248814;dashed=0;" vertex="1" parent="3BxQ9rhZjtDYRVUFLNOO-2">
          <mxGeometry x="40" y="30" width="280" height="195" as="geometry" />
        </mxCell>
        <mxCell id="3BxQ9rhZjtDYRVUFLNOO-10" value="/hxlogs" style="sketch=0;outlineConnect=0;fontColor=#232F3E;gradientColor=none;fillColor=#7AA116;strokeColor=none;dashed=0;verticalLabelPosition=bottom;verticalAlign=top;align=center;html=1;fontSize=12;fontStyle=0;aspect=fixed;pointerEvents=1;shape=mxgraph.aws4.volume;" vertex="1" parent="3BxQ9rhZjtDYRVUFLNOO-5">
          <mxGeometry x="40" y="130" width="25.04" height="31.5" as="geometry" />
        </mxCell>
        <mxCell id="3BxQ9rhZjtDYRVUFLNOO-11" value="/hxdepots" style="sketch=0;outlineConnect=0;fontColor=#232F3E;gradientColor=none;fillColor=#7AA116;strokeColor=none;dashed=0;verticalLabelPosition=bottom;verticalAlign=top;align=center;html=1;fontSize=12;fontStyle=0;aspect=fixed;pointerEvents=1;shape=mxgraph.aws4.volume;" vertex="1" parent="3BxQ9rhZjtDYRVUFLNOO-5">
          <mxGeometry x="127.48" y="130" width="25.04" height="31.5" as="geometry" />
        </mxCell>
        <mxCell id="3BxQ9rhZjtDYRVUFLNOO-12" value="/hxmetadata" style="sketch=0;outlineConnect=0;fontColor=#232F3E;gradientColor=none;fillColor=#7AA116;strokeColor=none;dashed=0;verticalLabelPosition=bottom;verticalAlign=top;align=center;html=1;fontSize=12;fontStyle=0;aspect=fixed;pointerEvents=1;shape=mxgraph.aws4.volume;" vertex="1" parent="3BxQ9rhZjtDYRVUFLNOO-5">
          <mxGeometry x="210" y="130" width="25.04" height="31.5" as="geometry" />
        </mxCell>
        <mxCell id="3BxQ9rhZjtDYRVUFLNOO-9" value="" style="group;labelPosition=center;verticalLabelPosition=top;align=center;verticalAlign=bottom;" vertex="1" connectable="0" parent="3BxQ9rhZjtDYRVUFLNOO-5">
          <mxGeometry x="116" y="60" width="48" height="48" as="geometry" />
        </mxCell>
        <mxCell id="3BxQ9rhZjtDYRVUFLNOO-7" value="Helix Core&lt;br&gt;Instance" style="sketch=0;outlineConnect=0;fontColor=#232F3E;gradientColor=none;fillColor=#ED7100;strokeColor=none;dashed=0;verticalLabelPosition=top;verticalAlign=bottom;align=center;html=1;fontSize=12;fontStyle=0;aspect=fixed;pointerEvents=1;shape=mxgraph.aws4.instance2;labelPosition=center;" vertex="1" parent="3BxQ9rhZjtDYRVUFLNOO-9">
          <mxGeometry width="48" height="48" as="geometry" />
        </mxCell>
        <mxCell id="3BxQ9rhZjtDYRVUFLNOO-8" value="" style="shape=image;verticalLabelPosition=top;labelBackgroundColor=default;verticalAlign=bottom;aspect=fixed;imageAspect=0;image=https://plugins.jetbrains.com/files/69/372238/icon/pluginIcon.png;clipPath=inset(0% 18% 0% 17.33%);labelPosition=center;align=center;" vertex="1" parent="3BxQ9rhZjtDYRVUFLNOO-9">
          <mxGeometry x="9.450000000000003" y="9" width="29.1" height="30" as="geometry" />
        </mxCell>
        <mxCell id="3BxQ9rhZjtDYRVUFLNOO-26" style="edgeStyle=orthogonalEdgeStyle;rounded=0;orthogonalLoop=1;jettySize=auto;html=1;" edge="1" parent="3BxQ9rhZjtDYRVUFLNOO-5" source="3BxQ9rhZjtDYRVUFLNOO-7" target="3BxQ9rhZjtDYRVUFLNOO-11">
          <mxGeometry relative="1" as="geometry" />
        </mxCell>
        <mxCell id="3BxQ9rhZjtDYRVUFLNOO-27" style="edgeStyle=orthogonalEdgeStyle;rounded=0;orthogonalLoop=1;jettySize=auto;html=1;" edge="1" parent="3BxQ9rhZjtDYRVUFLNOO-5" source="3BxQ9rhZjtDYRVUFLNOO-7" target="3BxQ9rhZjtDYRVUFLNOO-10">
          <mxGeometry relative="1" as="geometry" />
        </mxCell>
        <mxCell id="3BxQ9rhZjtDYRVUFLNOO-28" style="edgeStyle=orthogonalEdgeStyle;rounded=0;orthogonalLoop=1;jettySize=auto;html=1;" edge="1" parent="3BxQ9rhZjtDYRVUFLNOO-5" source="3BxQ9rhZjtDYRVUFLNOO-7" target="3BxQ9rhZjtDYRVUFLNOO-12">
          <mxGeometry relative="1" as="geometry" />
        </mxCell>
      </root>
    </mxGraphModel>
  </diagram>
  <diagram id="Xh5QfSEDMpSib6aEclSd" name="helix-swarm">
    <mxGraphModel dx="1434" dy="907" grid="1" gridSize="10" guides="1" tooltips="1" connect="1" arrows="1" fold="1" page="1" pageScale="1" pageWidth="850" pageHeight="1100" math="0" shadow="0">
      <root>
        <mxCell id="0" />
        <mxCell id="1" parent="0" />
        <mxCell id="GeGMklvbtBQ4EdF1cZcZ-1" value="AWS Cloud" style="points=[[0,0],[0.25,0],[0.5,0],[0.75,0],[1,0],[1,0.25],[1,0.5],[1,0.75],[1,1],[0.75,1],[0.5,1],[0.25,1],[0,1],[0,0.75],[0,0.5],[0,0.25]];outlineConnect=0;gradientColor=none;html=1;whiteSpace=wrap;fontSize=12;fontStyle=0;container=1;pointerEvents=0;collapsible=0;recursiveResize=0;shape=mxgraph.aws4.group;grIcon=mxgraph.aws4.group_aws_cloud_alt;strokeColor=#232F3E;fillColor=none;verticalAlign=top;align=left;spacingLeft=30;fontColor=#232F3E;dashed=0;" vertex="1" parent="1">
          <mxGeometry x="65" y="120" width="720" height="600" as="geometry" />
        </mxCell>
        <mxCell id="GeGMklvbtBQ4EdF1cZcZ-2" value="vpc_id" style="points=[[0,0],[0.25,0],[0.5,0],[0.75,0],[1,0],[1,0.25],[1,0.5],[1,0.75],[1,1],[0.75,1],[0.5,1],[0.25,1],[0,1],[0,0.75],[0,0.5],[0,0.25]];outlineConnect=0;gradientColor=none;html=1;whiteSpace=wrap;fontSize=12;fontStyle=0;container=1;pointerEvents=0;collapsible=0;recursiveResize=0;shape=mxgraph.aws4.group;grIcon=mxgraph.aws4.group_vpc;strokeColor=#248814;fillColor=none;verticalAlign=top;align=left;spacingLeft=30;fontColor=#AAB7B8;dashed=0;" vertex="1" parent="GeGMklvbtBQ4EdF1cZcZ-1">
          <mxGeometry x="40" y="40" width="480" height="520" as="geometry" />
        </mxCell>
        <mxCell id="GeGMklvbtBQ4EdF1cZcZ-74" value="swarm_service_sg" style="fillColor=none;strokeColor=#DD3522;verticalAlign=top;fontStyle=0;fontColor=#DD3522;whiteSpace=wrap;html=1;" vertex="1" parent="GeGMklvbtBQ4EdF1cZcZ-2">
          <mxGeometry x="230" y="10" width="190" height="490" as="geometry" />
        </mxCell>
        <mxCell id="GeGMklvbtBQ4EdF1cZcZ-21" value="swarm_alb_sg" style="fillColor=none;strokeColor=#DD3522;verticalAlign=top;fontStyle=0;fontColor=#DD3522;whiteSpace=wrap;html=1;" vertex="1" parent="GeGMklvbtBQ4EdF1cZcZ-2">
          <mxGeometry x="30" y="195" width="130" height="130" as="geometry" />
        </mxCell>
        <mxCell id="GeGMklvbtBQ4EdF1cZcZ-13" value="Helix Swarm ALB" style="sketch=0;outlineConnect=0;fontColor=#232F3E;gradientColor=none;fillColor=#8C4FFF;strokeColor=none;dashed=0;verticalLabelPosition=bottom;verticalAlign=top;align=center;html=1;fontSize=12;fontStyle=0;aspect=fixed;pointerEvents=1;shape=mxgraph.aws4.application_load_balancer;" vertex="1" parent="GeGMklvbtBQ4EdF1cZcZ-2">
          <mxGeometry x="70" y="235" width="50" height="50" as="geometry" />
        </mxCell>
        <mxCell id="GeGMklvbtBQ4EdF1cZcZ-51" value="service subnet" style="points=[[0,0],[0.25,0],[0.5,0],[0.75,0],[1,0],[1,0.25],[1,0.5],[1,0.75],[1,1],[0.75,1],[0.5,1],[0.25,1],[0,1],[0,0.75],[0,0.5],[0,0.25]];outlineConnect=0;gradientColor=none;html=1;whiteSpace=wrap;fontSize=12;fontStyle=0;container=1;pointerEvents=0;collapsible=0;recursiveResize=0;shape=mxgraph.aws4.group;grIcon=mxgraph.aws4.group_security_group;grStroke=0;strokeColor=#147EBA;fillColor=#E6F2F8;verticalAlign=top;align=left;spacingLeft=30;fontColor=#147EBA;dashed=0;" vertex="1" parent="GeGMklvbtBQ4EdF1cZcZ-2">
          <mxGeometry x="200" y="40" width="250" height="200" as="geometry" />
        </mxCell>
        <mxCell id="GeGMklvbtBQ4EdF1cZcZ-55" style="edgeStyle=orthogonalEdgeStyle;rounded=0;orthogonalLoop=1;jettySize=auto;html=1;" edge="1" parent="GeGMklvbtBQ4EdF1cZcZ-51" source="GeGMklvbtBQ4EdF1cZcZ-52" target="GeGMklvbtBQ4EdF1cZcZ-53">
          <mxGeometry relative="1" as="geometry" />
        </mxCell>
        <mxCell id="GeGMklvbtBQ4EdF1cZcZ-56" style="edgeStyle=orthogonalEdgeStyle;rounded=0;orthogonalLoop=1;jettySize=auto;html=1;" edge="1" parent="GeGMklvbtBQ4EdF1cZcZ-51" source="GeGMklvbtBQ4EdF1cZcZ-52" target="GeGMklvbtBQ4EdF1cZcZ-54">
          <mxGeometry relative="1" as="geometry" />
        </mxCell>
        <mxCell id="GeGMklvbtBQ4EdF1cZcZ-52" value="Helix Swarm&lt;br&gt;Service" style="sketch=0;outlineConnect=0;fontColor=#232F3E;gradientColor=none;fillColor=#ED7100;strokeColor=none;dashed=0;verticalLabelPosition=bottom;verticalAlign=top;align=center;html=1;fontSize=12;fontStyle=0;aspect=fixed;pointerEvents=1;shape=mxgraph.aws4.ecs_service;" vertex="1" parent="GeGMklvbtBQ4EdF1cZcZ-51">
          <mxGeometry x="46" y="76" width="39" height="48" as="geometry" />
        </mxCell>
        <mxCell id="GeGMklvbtBQ4EdF1cZcZ-53" value="Helix Swarm" style="sketch=0;outlineConnect=0;fontColor=#232F3E;gradientColor=none;fillColor=#ED7100;strokeColor=none;dashed=0;verticalLabelPosition=bottom;verticalAlign=top;align=center;html=1;fontSize=12;fontStyle=0;aspect=fixed;pointerEvents=1;shape=mxgraph.aws4.container_1;" vertex="1" parent="GeGMklvbtBQ4EdF1cZcZ-51">
          <mxGeometry x="156" y="54.5" width="48" height="31" as="geometry" />
        </mxCell>
        <mxCell id="GeGMklvbtBQ4EdF1cZcZ-54" value="Redis" style="sketch=0;outlineConnect=0;fontColor=#232F3E;gradientColor=none;fillColor=#ED7100;strokeColor=none;dashed=0;verticalLabelPosition=bottom;verticalAlign=top;align=center;html=1;fontSize=12;fontStyle=0;aspect=fixed;pointerEvents=1;shape=mxgraph.aws4.container_1;" vertex="1" parent="GeGMklvbtBQ4EdF1cZcZ-51">
          <mxGeometry x="156" y="114.5" width="48" height="31" as="geometry" />
        </mxCell>
        <mxCell id="GeGMklvbtBQ4EdF1cZcZ-65" value="service subnet" style="points=[[0,0],[0.25,0],[0.5,0],[0.75,0],[1,0],[1,0.25],[1,0.5],[1,0.75],[1,1],[0.75,1],[0.5,1],[0.25,1],[0,1],[0,0.75],[0,0.5],[0,0.25]];outlineConnect=0;gradientColor=none;html=1;whiteSpace=wrap;fontSize=12;fontStyle=0;container=1;pointerEvents=0;collapsible=0;recursiveResize=0;shape=mxgraph.aws4.group;grIcon=mxgraph.aws4.group_security_group;grStroke=0;strokeColor=#147EBA;fillColor=#E6F2F8;verticalAlign=top;align=left;spacingLeft=30;fontColor=#147EBA;dashed=0;" vertex="1" parent="GeGMklvbtBQ4EdF1cZcZ-2">
          <mxGeometry x="200" y="280" width="250" height="200" as="geometry" />
        </mxCell>
        <mxCell id="GeGMklvbtBQ4EdF1cZcZ-66" style="edgeStyle=orthogonalEdgeStyle;rounded=0;orthogonalLoop=1;jettySize=auto;html=1;" edge="1" parent="GeGMklvbtBQ4EdF1cZcZ-65" source="GeGMklvbtBQ4EdF1cZcZ-68" target="GeGMklvbtBQ4EdF1cZcZ-69">
          <mxGeometry relative="1" as="geometry" />
        </mxCell>
        <mxCell id="GeGMklvbtBQ4EdF1cZcZ-67" style="edgeStyle=orthogonalEdgeStyle;rounded=0;orthogonalLoop=1;jettySize=auto;html=1;" edge="1" parent="GeGMklvbtBQ4EdF1cZcZ-65" source="GeGMklvbtBQ4EdF1cZcZ-68" target="GeGMklvbtBQ4EdF1cZcZ-70">
          <mxGeometry relative="1" as="geometry" />
        </mxCell>
        <mxCell id="GeGMklvbtBQ4EdF1cZcZ-68" value="Helix Swarm&lt;br&gt;Service" style="sketch=0;outlineConnect=0;fontColor=#232F3E;gradientColor=none;fillColor=#ED7100;strokeColor=none;dashed=0;verticalLabelPosition=bottom;verticalAlign=top;align=center;html=1;fontSize=12;fontStyle=0;aspect=fixed;pointerEvents=1;shape=mxgraph.aws4.ecs_service;" vertex="1" parent="GeGMklvbtBQ4EdF1cZcZ-65">
          <mxGeometry x="46" y="76" width="39" height="48" as="geometry" />
        </mxCell>
        <mxCell id="GeGMklvbtBQ4EdF1cZcZ-69" value="Helix Swarm" style="sketch=0;outlineConnect=0;fontColor=#232F3E;gradientColor=none;fillColor=#ED7100;strokeColor=none;dashed=0;verticalLabelPosition=bottom;verticalAlign=top;align=center;html=1;fontSize=12;fontStyle=0;aspect=fixed;pointerEvents=1;shape=mxgraph.aws4.container_1;" vertex="1" parent="GeGMklvbtBQ4EdF1cZcZ-65">
          <mxGeometry x="156" y="54.5" width="48" height="31" as="geometry" />
        </mxCell>
        <mxCell id="GeGMklvbtBQ4EdF1cZcZ-70" value="Redis" style="sketch=0;outlineConnect=0;fontColor=#232F3E;gradientColor=none;fillColor=#ED7100;strokeColor=none;dashed=0;verticalLabelPosition=bottom;verticalAlign=top;align=center;html=1;fontSize=12;fontStyle=0;aspect=fixed;pointerEvents=1;shape=mxgraph.aws4.container_1;" vertex="1" parent="GeGMklvbtBQ4EdF1cZcZ-65">
          <mxGeometry x="156" y="114.5" width="48" height="31" as="geometry" />
        </mxCell>
        <mxCell id="GeGMklvbtBQ4EdF1cZcZ-72" style="edgeStyle=orthogonalEdgeStyle;rounded=0;orthogonalLoop=1;jettySize=auto;html=1;" edge="1" parent="GeGMklvbtBQ4EdF1cZcZ-2" source="GeGMklvbtBQ4EdF1cZcZ-13" target="GeGMklvbtBQ4EdF1cZcZ-68">
          <mxGeometry relative="1" as="geometry">
            <Array as="points">
              <mxPoint x="180" y="260" />
              <mxPoint x="180" y="380" />
            </Array>
          </mxGeometry>
        </mxCell>
        <mxCell id="GeGMklvbtBQ4EdF1cZcZ-73" style="edgeStyle=orthogonalEdgeStyle;rounded=0;orthogonalLoop=1;jettySize=auto;html=1;" edge="1" parent="GeGMklvbtBQ4EdF1cZcZ-2" source="GeGMklvbtBQ4EdF1cZcZ-13" target="GeGMklvbtBQ4EdF1cZcZ-52">
          <mxGeometry relative="1" as="geometry">
            <Array as="points">
              <mxPoint x="180" y="260" />
              <mxPoint x="180" y="140" />
            </Array>
          </mxGeometry>
        </mxCell>
        <mxCell id="GeGMklvbtBQ4EdF1cZcZ-79" value="Amazon Certificate Manager" style="sketch=0;points=[[0,0,0],[0.25,0,0],[0.5,0,0],[0.75,0,0],[1,0,0],[0,1,0],[0.25,1,0],[0.5,1,0],[0.75,1,0],[1,1,0],[0,0.25,0],[0,0.5,0],[0,0.75,0],[1,0.25,0],[1,0.5,0],[1,0.75,0]];outlineConnect=0;fontColor=#232F3E;fillColor=#DD344C;strokeColor=#ffffff;dashed=0;verticalLabelPosition=bottom;verticalAlign=top;align=center;html=1;fontSize=12;fontStyle=0;aspect=fixed;shape=mxgraph.aws4.resourceIcon;resIcon=mxgraph.aws4.certificate_manager_3;" vertex="1" parent="GeGMklvbtBQ4EdF1cZcZ-2">
          <mxGeometry x="70" y="40" width="50" height="50" as="geometry" />
        </mxCell>
        <mxCell id="GeGMklvbtBQ4EdF1cZcZ-77" value="AWS Secrets Manager" style="sketch=0;points=[[0,0,0],[0.25,0,0],[0.5,0,0],[0.75,0,0],[1,0,0],[0,1,0],[0.25,1,0],[0.5,1,0],[0.75,1,0],[1,1,0],[0,0.25,0],[0,0.5,0],[0,0.75,0],[1,0.25,0],[1,0.5,0],[1,0.75,0]];outlineConnect=0;fontColor=#232F3E;fillColor=#DD344C;strokeColor=#ffffff;dashed=0;verticalLabelPosition=bottom;verticalAlign=top;align=center;html=1;fontSize=12;fontStyle=0;aspect=fixed;shape=mxgraph.aws4.resourceIcon;resIcon=mxgraph.aws4.secrets_manager;" vertex="1" parent="GeGMklvbtBQ4EdF1cZcZ-1">
          <mxGeometry x="605" y="125" width="50" height="50" as="geometry" />
        </mxCell>
        <mxCell id="GeGMklvbtBQ4EdF1cZcZ-75" value="Amazon ElastiCache&lt;br&gt;(Coming Soon)" style="sketch=0;points=[[0,0,0],[0.25,0,0],[0.5,0,0],[0.75,0,0],[1,0,0],[0,1,0],[0.25,1,0],[0.5,1,0],[0.75,1,0],[1,1,0],[0,0.25,0],[0,0.5,0],[0,0.75,0],[1,0.25,0],[1,0.5,0],[1,0.75,0]];outlineConnect=0;fontColor=#232F3E;fillColor=#C925D1;strokeColor=#ffffff;dashed=0;verticalLabelPosition=bottom;verticalAlign=top;align=center;html=1;fontSize=12;fontStyle=0;aspect=fixed;shape=mxgraph.aws4.resourceIcon;resIcon=mxgraph.aws4.elasticache;" vertex="1" parent="GeGMklvbtBQ4EdF1cZcZ-1">
          <mxGeometry x="605" y="360" width="48" height="48" as="geometry" />
        </mxCell>
        <mxCell id="GeGMklvbtBQ4EdF1cZcZ-76" value="Amazon Elastic File System&lt;br&gt;(Coming Soon)" style="sketch=0;points=[[0,0,0],[0.25,0,0],[0.5,0,0],[0.75,0,0],[1,0,0],[0,1,0],[0.25,1,0],[0.5,1,0],[0.75,1,0],[1,1,0],[0,0.25,0],[0,0.5,0],[0,0.75,0],[1,0.25,0],[1,0.5,0],[1,0.75,0]];outlineConnect=0;fontColor=#232F3E;fillColor=#7AA116;strokeColor=#ffffff;dashed=0;verticalLabelPosition=bottom;verticalAlign=top;align=center;html=1;fontSize=12;fontStyle=0;aspect=fixed;shape=mxgraph.aws4.resourceIcon;resIcon=mxgraph.aws4.elastic_file_system;" vertex="1" parent="GeGMklvbtBQ4EdF1cZcZ-1">
          <mxGeometry x="605" y="469" width="49" height="49" as="geometry" />
        </mxCell>
        <mxCell id="GeGMklvbtBQ4EdF1cZcZ-78" style="edgeStyle=orthogonalEdgeStyle;rounded=0;orthogonalLoop=1;jettySize=auto;html=1;" edge="1" parent="GeGMklvbtBQ4EdF1cZcZ-1" source="GeGMklvbtBQ4EdF1cZcZ-53" target="GeGMklvbtBQ4EdF1cZcZ-77">
          <mxGeometry relative="1" as="geometry" />
        </mxCell>
      </root>
    </mxGraphModel>
  </diagram>
  <diagram id="9AWxmYSsuRl5mJqWBtS2" name="helix-auth-service">
    <mxGraphModel dx="1247" dy="789" grid="1" gridSize="10" guides="1" tooltips="1" connect="1" arrows="1" fold="1" page="1" pageScale="1" pageWidth="850" pageHeight="1100" math="0" shadow="0">
      <root>
        <mxCell id="0" />
        <mxCell id="1" parent="0" />
        <mxCell id="Ys2dFZScqV78LRWy1GiT-1" value="AWS Cloud" style="points=[[0,0],[0.25,0],[0.5,0],[0.75,0],[1,0],[1,0.25],[1,0.5],[1,0.75],[1,1],[0.75,1],[0.5,1],[0.25,1],[0,1],[0,0.75],[0,0.5],[0,0.25]];outlineConnect=0;gradientColor=none;html=1;whiteSpace=wrap;fontSize=12;fontStyle=0;container=1;pointerEvents=0;collapsible=0;recursiveResize=0;shape=mxgraph.aws4.group;grIcon=mxgraph.aws4.group_aws_cloud_alt;strokeColor=#232F3E;fillColor=none;verticalAlign=top;align=left;spacingLeft=30;fontColor=#232F3E;dashed=0;" vertex="1" parent="1">
          <mxGeometry x="65" y="120" width="645" height="480" as="geometry" />
        </mxCell>
        <mxCell id="Ys2dFZScqV78LRWy1GiT-2" value="vpc_id" style="points=[[0,0],[0.25,0],[0.5,0],[0.75,0],[1,0],[1,0.25],[1,0.5],[1,0.75],[1,1],[0.75,1],[0.5,1],[0.25,1],[0,1],[0,0.75],[0,0.5],[0,0.25]];outlineConnect=0;gradientColor=none;html=1;whiteSpace=wrap;fontSize=12;fontStyle=0;container=1;pointerEvents=0;collapsible=0;recursiveResize=0;shape=mxgraph.aws4.group;grIcon=mxgraph.aws4.group_vpc;strokeColor=#248814;fillColor=none;verticalAlign=top;align=left;spacingLeft=30;fontColor=#AAB7B8;dashed=0;" vertex="1" parent="Ys2dFZScqV78LRWy1GiT-1">
          <mxGeometry x="40" y="40" width="420" height="400" as="geometry" />
        </mxCell>
        <mxCell id="Ys2dFZScqV78LRWy1GiT-4" value="HAS_alb_sg" style="fillColor=none;strokeColor=#DD3522;verticalAlign=top;fontStyle=0;fontColor=#DD3522;whiteSpace=wrap;html=1;" vertex="1" parent="Ys2dFZScqV78LRWy1GiT-2">
          <mxGeometry x="30" y="140" width="130" height="130" as="geometry" />
        </mxCell>
        <mxCell id="Ys2dFZScqV78LRWy1GiT-5" value="Helix Auth Service&lt;br&gt;ALB" style="sketch=0;outlineConnect=0;fontColor=#232F3E;gradientColor=none;fillColor=#8C4FFF;strokeColor=none;dashed=0;verticalLabelPosition=bottom;verticalAlign=top;align=center;html=1;fontSize=12;fontStyle=0;aspect=fixed;pointerEvents=1;shape=mxgraph.aws4.application_load_balancer;" vertex="1" parent="Ys2dFZScqV78LRWy1GiT-2">
          <mxGeometry x="70" y="180" width="50" height="50" as="geometry" />
        </mxCell>
        <mxCell id="Ys2dFZScqV78LRWy1GiT-6" value="service subnet" style="points=[[0,0],[0.25,0],[0.5,0],[0.75,0],[1,0],[1,0.25],[1,0.5],[1,0.75],[1,1],[0.75,1],[0.5,1],[0.25,1],[0,1],[0,0.75],[0,0.5],[0,0.25]];outlineConnect=0;gradientColor=none;html=1;whiteSpace=wrap;fontSize=12;fontStyle=0;container=1;pointerEvents=0;collapsible=0;recursiveResize=0;shape=mxgraph.aws4.group;grIcon=mxgraph.aws4.group_security_group;grStroke=0;strokeColor=#147EBA;fillColor=#E6F2F8;verticalAlign=top;align=left;spacingLeft=30;fontColor=#147EBA;dashed=0;" vertex="1" parent="Ys2dFZScqV78LRWy1GiT-2">
          <mxGeometry x="200" y="40" width="180" height="140" as="geometry" />
        </mxCell>
        <mxCell id="Ys2dFZScqV78LRWy1GiT-9" value="Helix Authentication&lt;br&gt;Service" style="sketch=0;outlineConnect=0;fontColor=#232F3E;gradientColor=none;fillColor=#ED7100;strokeColor=none;dashed=0;verticalLabelPosition=bottom;verticalAlign=top;align=center;html=1;fontSize=12;fontStyle=0;aspect=fixed;pointerEvents=1;shape=mxgraph.aws4.ecs_service;" vertex="1" parent="Ys2dFZScqV78LRWy1GiT-6">
          <mxGeometry x="70.5" y="46" width="39" height="48" as="geometry" />
        </mxCell>
        <mxCell id="Ys2dFZScqV78LRWy1GiT-20" value="Amazon Certificate Manager" style="sketch=0;points=[[0,0,0],[0.25,0,0],[0.5,0,0],[0.75,0,0],[1,0,0],[0,1,0],[0.25,1,0],[0.5,1,0],[0.75,1,0],[1,1,0],[0,0.25,0],[0,0.5,0],[0,0.75,0],[1,0.25,0],[1,0.5,0],[1,0.75,0]];outlineConnect=0;fontColor=#232F3E;fillColor=#DD344C;strokeColor=#ffffff;dashed=0;verticalLabelPosition=bottom;verticalAlign=top;align=center;html=1;fontSize=12;fontStyle=0;aspect=fixed;shape=mxgraph.aws4.resourceIcon;resIcon=mxgraph.aws4.certificate_manager_3;" vertex="1" parent="Ys2dFZScqV78LRWy1GiT-2">
          <mxGeometry x="70" y="40" width="50" height="50" as="geometry" />
        </mxCell>
        <mxCell id="Ys2dFZScqV78LRWy1GiT-25" value="service subnet" style="points=[[0,0],[0.25,0],[0.5,0],[0.75,0],[1,0],[1,0.25],[1,0.5],[1,0.75],[1,1],[0.75,1],[0.5,1],[0.25,1],[0,1],[0,0.75],[0,0.5],[0,0.25]];outlineConnect=0;gradientColor=none;html=1;whiteSpace=wrap;fontSize=12;fontStyle=0;container=1;pointerEvents=0;collapsible=0;recursiveResize=0;shape=mxgraph.aws4.group;grIcon=mxgraph.aws4.group_security_group;grStroke=0;strokeColor=#147EBA;fillColor=#E6F2F8;verticalAlign=top;align=left;spacingLeft=30;fontColor=#147EBA;dashed=0;" vertex="1" parent="Ys2dFZScqV78LRWy1GiT-2">
          <mxGeometry x="200" y="200" width="180" height="140" as="geometry" />
        </mxCell>
        <mxCell id="Ys2dFZScqV78LRWy1GiT-26" value="Helix Authentication&lt;br&gt;Service" style="sketch=0;outlineConnect=0;fontColor=#232F3E;gradientColor=none;fillColor=#ED7100;strokeColor=none;dashed=0;verticalLabelPosition=bottom;verticalAlign=top;align=center;html=1;fontSize=12;fontStyle=0;aspect=fixed;pointerEvents=1;shape=mxgraph.aws4.ecs_service;" vertex="1" parent="Ys2dFZScqV78LRWy1GiT-25">
          <mxGeometry x="70.5" y="46" width="39" height="48" as="geometry" />
        </mxCell>
        <mxCell id="Ys2dFZScqV78LRWy1GiT-27" style="edgeStyle=orthogonalEdgeStyle;rounded=0;orthogonalLoop=1;jettySize=auto;html=1;" edge="1" parent="Ys2dFZScqV78LRWy1GiT-2" source="Ys2dFZScqV78LRWy1GiT-5" target="Ys2dFZScqV78LRWy1GiT-26">
          <mxGeometry relative="1" as="geometry">
            <Array as="points">
              <mxPoint x="185" y="205" />
              <mxPoint x="185" y="270" />
            </Array>
          </mxGeometry>
        </mxCell>
        <mxCell id="Ys2dFZScqV78LRWy1GiT-28" style="edgeStyle=orthogonalEdgeStyle;rounded=0;orthogonalLoop=1;jettySize=auto;html=1;" edge="1" parent="Ys2dFZScqV78LRWy1GiT-2" source="Ys2dFZScqV78LRWy1GiT-5" target="Ys2dFZScqV78LRWy1GiT-9">
          <mxGeometry relative="1" as="geometry">
            <Array as="points">
              <mxPoint x="185" y="205" />
              <mxPoint x="185" y="110" />
            </Array>
          </mxGeometry>
        </mxCell>
        <mxCell id="Ys2dFZScqV78LRWy1GiT-30" value="helix_auth_svc_sg" style="fillColor=none;strokeColor=#DD3522;verticalAlign=top;fontStyle=0;fontColor=#DD3522;whiteSpace=wrap;html=1;" vertex="1" parent="Ys2dFZScqV78LRWy1GiT-2">
          <mxGeometry x="230" y="10" width="120" height="350" as="geometry" />
        </mxCell>
        <mxCell id="Ys2dFZScqV78LRWy1GiT-21" value="AWS Secrets Manager" style="sketch=0;points=[[0,0,0],[0.25,0,0],[0.5,0,0],[0.75,0,0],[1,0,0],[0,1,0],[0.25,1,0],[0.5,1,0],[0.75,1,0],[1,1,0],[0,0.25,0],[0,0.5,0],[0,0.75,0],[1,0.25,0],[1,0.5,0],[1,0.75,0]];outlineConnect=0;fontColor=#232F3E;fillColor=#DD344C;strokeColor=#ffffff;dashed=0;verticalLabelPosition=bottom;verticalAlign=top;align=center;html=1;fontSize=12;fontStyle=0;aspect=fixed;shape=mxgraph.aws4.resourceIcon;resIcon=mxgraph.aws4.secrets_manager;" vertex="1" parent="Ys2dFZScqV78LRWy1GiT-1">
          <mxGeometry x="535" y="126" width="50" height="50" as="geometry" />
        </mxCell>
        <mxCell id="Ys2dFZScqV78LRWy1GiT-22" value="Amazon ElastiCache&lt;br&gt;(Coming Soon)" style="sketch=0;points=[[0,0,0],[0.25,0,0],[0.5,0,0],[0.75,0,0],[1,0,0],[0,1,0],[0.25,1,0],[0.5,1,0],[0.75,1,0],[1,1,0],[0,0.25,0],[0,0.5,0],[0,0.75,0],[1,0.25,0],[1,0.5,0],[1,0.75,0]];outlineConnect=0;fontColor=#232F3E;fillColor=#C925D1;strokeColor=#ffffff;dashed=0;verticalLabelPosition=bottom;verticalAlign=top;align=center;html=1;fontSize=12;fontStyle=0;aspect=fixed;shape=mxgraph.aws4.resourceIcon;resIcon=mxgraph.aws4.elasticache;" vertex="1" parent="Ys2dFZScqV78LRWy1GiT-1">
          <mxGeometry x="536" y="251" width="48" height="48" as="geometry" />
        </mxCell>
        <mxCell id="Ys2dFZScqV78LRWy1GiT-23" value="Amazon Elastic File System&lt;br&gt;(Coming Soon)" style="sketch=0;points=[[0,0,0],[0.25,0,0],[0.5,0,0],[0.75,0,0],[1,0,0],[0,1,0],[0.25,1,0],[0.5,1,0],[0.75,1,0],[1,1,0],[0,0.25,0],[0,0.5,0],[0,0.75,0],[1,0.25,0],[1,0.5,0],[1,0.75,0]];outlineConnect=0;fontColor=#232F3E;fillColor=#7AA116;strokeColor=#ffffff;dashed=0;verticalLabelPosition=bottom;verticalAlign=top;align=center;html=1;fontSize=12;fontStyle=0;aspect=fixed;shape=mxgraph.aws4.resourceIcon;resIcon=mxgraph.aws4.elastic_file_system;" vertex="1" parent="Ys2dFZScqV78LRWy1GiT-1">
          <mxGeometry x="536" y="360" width="49" height="49" as="geometry" />
        </mxCell>
        <mxCell id="Ys2dFZScqV78LRWy1GiT-29" style="edgeStyle=orthogonalEdgeStyle;rounded=0;orthogonalLoop=1;jettySize=auto;html=1;" edge="1" parent="Ys2dFZScqV78LRWy1GiT-1" source="Ys2dFZScqV78LRWy1GiT-9" target="Ys2dFZScqV78LRWy1GiT-21">
          <mxGeometry relative="1" as="geometry" />
        </mxCell>
      </root>
    </mxGraphModel>
  </diagram>
</mxfile>
